<?xml version="1.0" encoding="UTF-8" standalone="no"?>
<!-- Created with Inkscape (http://www.inkscape.org/) -->

<svg
   xmlns:dc="http://purl.org/dc/elements/1.1/"
   xmlns:cc="http://creativecommons.org/ns#"
   xmlns:rdf="http://www.w3.org/1999/02/22-rdf-syntax-ns#"
   xmlns:svg="http://www.w3.org/2000/svg"
   xmlns="http://www.w3.org/2000/svg"
   xmlns:sodipodi="http://sodipodi.sourceforge.net/DTD/sodipodi-0.dtd"
   xmlns:inkscape="http://www.inkscape.org/namespaces/inkscape"
   width="56.444443mm"
   height="56.750942mm"
   viewBox="0 0 199.99999 201.08601"
   version="1.1"
   inkscape:version="0.91 r13725"
   sodipodi:docname="solstice_logo.svg">
  <defs />
  <sodipodi:namedview
     pagecolor="#ffffff"
     bordercolor="#666666"
     borderopacity="1.0"
     inkscape:pageopacity="0.0"
     inkscape:pageshadow="2"
     inkscape:zoom="0.98994949"
     inkscape:cx="9.1067377"
     inkscape:cy="10.280292"
     inkscape:document-units="px"
     showgrid="false"
     inkscape:window-width="1440"
     inkscape:window-height="806"
     inkscape:window-x="0"
     inkscape:window-y="0"
     inkscape:window-maximized="0"
     fit-margin-top="0"
     fit-margin-left="0"
     fit-margin-right="0"
     fit-margin-bottom="0" />
  <metadata
     id="metadata6369">
    <rdf:RDF>
      <cc:Work
         rdf:about="">
        <dc:format>image/svg+xml</dc:format>
        <dc:type
           rdf:resource="http://purl.org/dc/dcmitype/StillImage" />
        <dc:title></dc:title>
      </cc:Work>
    </rdf:RDF>
  </metadata>
  <g
     inkscape:groupmode="layer"
     inkscape:label="outline"
     transform="translate(-170.64306,-462.77478)">
    <path
       style="fill:#000000;fill-opacity:1;fill-rule:evenodd;stroke:#000005;stroke-width:3;stroke-linecap:round;stroke-linejoin:round;stroke-miterlimit:4;stroke-dasharray:none;stroke-opacity:1"
       d="m 276.05514,464.27439 c 8.63711,7.09567 11.82951,12.28512 13.53051,25.43812 -37.62924,-18.97279 -62.91518,-9.81394 -83.88833,1.0818 15.55167,-1.66058 32.38217,-4.60002 36.80307,4.87038 -41.49336,10.8242 -58.42387,33.24879 -70.35781,64.94716 4.41863,-6.81103 10.16144,-11.6209 22.73092,-15.69588 -16.64517,44.97042 -4.30562,65.62184 4.87176,83.34832 -1.57301,-10.5682 -5.75832,-27.0991 4.32864,-36.26067 9.89411,35.14946 34.15764,56.82666 67.11095,70.3577 -10.01794,-6.89967 -16.4955,-14.38952 -17.86063,-22.73135 28.50385,12.09341 57.0079,11.887 85.51175,-4.87038 -14.03381,1.63299 -26.64608,1.65731 -35.17817,-4.3302 29.55441,-6.2563 49.76538,-27.02731 65.48606,-61.15713 -4.36871,6.62307 -10.78595,10.51528 -19.48407,11.36568 15.8868,-38.40448 8.82136,-64.68056 -4.87027,-83.88996 2.90825,14.2839 2.46314,24.01723 -4.33012,34.09704 -18.43483,-46.45662 -42.60701,-57.34681 -64.40426,-66.57063 z m -2.16507,43.83927 c 12.77049,7.3907 25.93661,11.85498 36.26144,37.34395 3.04639,-5.85329 3.76593,-12.03871 3.24833,-18.40115 5.85745,12.32244 9.182,21.82952 -0.13259,45.46272 4.01273,0.31535 8.40816,-2.02917 12.4209,-5.79472 -8.03766,18.3822 -20.88829,28.28432 -35.01922,34.47974 6.13359,2.88695 12.26719,2.18555 18.40079,2.1651 -12.67801,5.70069 -25.39658,11.32595 -46.54511,1.08181 2.52565,5.96246 5.05132,9.50153 7.57697,13.53079 -18.68179,-8.54016 -29.33703,-20.8627 -35.52741,-40.34077 -3.46913,6.85549 -3.44194,15.62429 -2.8976,22.47978 -4.18789,-13.64077 -10.09197,-27.11825 0.67186,-49.92316 -4.91467,0.44898 -9.82934,5.5258 -14.74401,9.33229 5.55561,-16.6039 18.52711,-27.55788 36.82124,-34.48033 -4.5296,-3.75711 -11.61462,-2.62855 -18.96061,-2.8651 9.30391,-4.24458 22.12329,-7.77128 47.50111,1.18096 -0.85386,-7.74779 -5.11913,-10.14216 -9.07609,-15.25191 z"
       inkscape:connector-curvature="0"
       sodipodi:nodetypes="cccccccccccccccccccccccccccccccccc"
       class="shape" />
  </g>
</svg>
